<?xml version="1.0" encoding="iso-8859-1"?>
<!-- Generator: Adobe Illustrator 16.0.0, SVG Export Plug-In . SVG Version: 6.00 Build 0)  -->
<!DOCTYPE svg PUBLIC "-//W3C//DTD SVG 1.1//EN" "http://www.w3.org/Graphics/SVG/1.1/DTD/svg11.dtd">
<svg version="1.1" id="Capa_1" xmlns="http://www.w3.org/2000/svg" xmlns:xlink="http://www.w3.org/1999/xlink" x="0px" y="0px"
	 width="31.917px" height="31.917px" viewBox="0 0 31.917 31.917" style="enable-background:new 0 0 31.917 31.917;"
	 xml:space="preserve">
<g>
	<g>
		<path d="M26.002,10.26l4.93-4.056l-4.93-4.055H15.826V0h-2.943v2.149H0.985v8.11h11.898v19.595H9.918v2.063h8.792v-2.063h-2.884
			V10.26H26.002z M1.906,9.339v-6.27h23.769l3.809,3.135l-3.809,3.135H1.906z"/>
		<path d="M6.954,6.089c-0.088-0.071-0.187-0.13-0.299-0.176C6.544,5.866,6.428,5.825,6.311,5.792
			C6.193,5.759,6.078,5.729,5.967,5.706C5.855,5.682,5.755,5.654,5.666,5.625c-0.089-0.03-0.16-0.065-0.213-0.104
			C5.4,5.482,5.374,5.43,5.374,5.366c0-0.055,0.013-0.099,0.039-0.133C5.438,5.198,5.47,5.17,5.509,5.149
			c0.04-0.021,0.083-0.037,0.131-0.046C5.688,5.094,5.736,5.09,5.781,5.09c0.063,0,0.126,0.007,0.19,0.021
			c0.064,0.014,0.12,0.035,0.17,0.066C6.19,5.206,6.23,5.246,6.261,5.296c0.03,0.051,0.043,0.111,0.041,0.184h0.842
			c0-0.182-0.038-0.338-0.113-0.469C6.956,4.88,6.858,4.771,6.736,4.687C6.616,4.603,6.478,4.54,6.322,4.499
			C6.166,4.458,6.009,4.438,5.849,4.438c-0.151,0-0.305,0.018-0.462,0.053C5.23,4.528,5.088,4.587,4.961,4.665
			c-0.126,0.078-0.23,0.18-0.31,0.305s-0.12,0.275-0.12,0.451c0,0.148,0.028,0.273,0.084,0.379c0.056,0.103,0.128,0.191,0.217,0.262
			c0.089,0.071,0.19,0.129,0.304,0.175c0.113,0.045,0.227,0.085,0.342,0.118c0.117,0.033,0.231,0.061,0.341,0.087
			c0.11,0.025,0.209,0.055,0.297,0.088c0.087,0.033,0.158,0.072,0.21,0.117c0.052,0.045,0.079,0.104,0.079,0.178
			c0,0.061-0.015,0.111-0.045,0.153C6.331,7.021,6.292,7.056,6.243,7.08C6.195,7.106,6.139,7.126,6.078,7.137
			C6.016,7.149,5.953,7.155,5.89,7.155c-0.181,0-0.326-0.036-0.435-0.109C5.346,6.974,5.288,6.843,5.278,6.652H4.436
			c0,0.208,0.038,0.385,0.116,0.53c0.077,0.145,0.18,0.264,0.31,0.357C4.991,7.633,5.14,7.701,5.308,7.743
			C5.476,7.785,5.653,7.806,5.84,7.806c0.178,0,0.352-0.019,0.521-0.055S6.68,7.655,6.812,7.572C6.943,7.491,7.048,7.38,7.129,7.241
			c0.081-0.139,0.12-0.311,0.12-0.516c0-0.146-0.027-0.27-0.082-0.375C7.113,6.247,7.042,6.159,6.954,6.089z"/>
		<path d="M8.557,5.461c0.06-0.09,0.138-0.163,0.233-0.217c0.095-0.055,0.211-0.081,0.347-0.081c0.178,0,0.325,0.042,0.441,0.127
			c0.116,0.084,0.187,0.208,0.211,0.371h0.842c-0.006-0.193-0.054-0.366-0.143-0.519C10.4,4.99,10.286,4.861,10.147,4.757
			C10.008,4.653,9.851,4.573,9.678,4.52C9.505,4.465,9.33,4.438,9.155,4.438c-0.244,0-0.466,0.043-0.666,0.131
			c-0.2,0.087-0.369,0.207-0.51,0.359C7.839,5.081,7.732,5.26,7.656,5.464C7.58,5.668,7.543,5.888,7.543,6.123
			s0.038,0.454,0.113,0.659C7.732,6.985,7.84,7.163,7.98,7.315c0.141,0.153,0.31,0.273,0.51,0.36
			c0.199,0.089,0.421,0.133,0.665,0.133c0.205,0,0.396-0.029,0.571-0.089c0.175-0.059,0.327-0.145,0.457-0.258
			c0.13-0.113,0.234-0.252,0.313-0.417c0.078-0.164,0.123-0.352,0.135-0.559H9.789C9.774,6.673,9.711,6.819,9.601,6.924
			C9.491,7.03,9.336,7.083,9.137,7.083c-0.136,0-0.251-0.027-0.346-0.082C8.695,6.947,8.617,6.874,8.557,6.784
			c-0.06-0.092-0.104-0.193-0.131-0.308C8.399,6.361,8.385,6.243,8.385,6.123c0-0.122,0.014-0.238,0.041-0.354
			C8.453,5.654,8.497,5.552,8.557,5.461z"/>
		<polygon points="13.023,5.683 11.913,5.683 11.913,4.507 11.071,4.507 11.071,7.739 11.913,7.739 11.913,6.407 13.023,6.407 
			13.023,7.739 13.865,7.739 13.865,4.507 13.023,4.507 		"/>
		<path d="M17.084,4.929c-0.136-0.152-0.303-0.272-0.5-0.359c-0.197-0.088-0.423-0.131-0.677-0.131s-0.479,0.043-0.677,0.131
			c-0.198,0.087-0.364,0.207-0.5,0.359c-0.136,0.152-0.24,0.331-0.311,0.535c-0.07,0.204-0.106,0.424-0.106,0.659
			s0.036,0.454,0.106,0.659c0.071,0.203,0.175,0.381,0.311,0.533c0.136,0.153,0.302,0.273,0.5,0.36
			c0.198,0.088,0.424,0.132,0.677,0.132s0.479-0.044,0.677-0.132c0.198-0.087,0.365-0.207,0.5-0.36
			c0.137-0.152,0.239-0.33,0.311-0.533c0.07-0.205,0.107-0.424,0.107-0.659s-0.037-0.455-0.107-0.659
			C17.324,5.26,17.221,5.081,17.084,4.929z M16.619,6.476c-0.026,0.115-0.071,0.217-0.131,0.309
			c-0.062,0.09-0.138,0.163-0.233,0.217c-0.095,0.055-0.211,0.082-0.347,0.082s-0.251-0.027-0.347-0.082
			c-0.095-0.054-0.173-0.127-0.233-0.217c-0.06-0.092-0.104-0.193-0.131-0.309c-0.027-0.114-0.041-0.232-0.041-0.353
			c0-0.122,0.014-0.238,0.041-0.354c0.027-0.115,0.071-0.218,0.131-0.309c0.061-0.09,0.139-0.163,0.233-0.217
			c0.095-0.055,0.211-0.081,0.347-0.081s0.251,0.026,0.347,0.081c0.096,0.054,0.172,0.127,0.233,0.217
			c0.062,0.091,0.104,0.193,0.131,0.309C16.646,5.885,16.66,6,16.66,6.123C16.659,6.243,16.646,6.361,16.619,6.476z"/>
		<path d="M20.608,4.929c-0.137-0.152-0.303-0.272-0.5-0.359c-0.198-0.088-0.424-0.131-0.678-0.131
			c-0.252,0-0.479,0.043-0.676,0.131c-0.199,0.087-0.365,0.207-0.5,0.359c-0.137,0.152-0.24,0.331-0.312,0.535
			s-0.106,0.424-0.106,0.659s0.037,0.454,0.106,0.659c0.071,0.203,0.174,0.381,0.312,0.533c0.135,0.153,0.303,0.273,0.5,0.36
			c0.197,0.088,0.422,0.132,0.676,0.132c0.255,0,0.479-0.044,0.678-0.132c0.197-0.087,0.363-0.207,0.5-0.36
			c0.136-0.152,0.238-0.33,0.311-0.533c0.071-0.205,0.106-0.424,0.106-0.659s-0.036-0.455-0.106-0.659
			C20.846,5.26,20.744,5.081,20.608,4.929z M20.142,6.476c-0.027,0.115-0.071,0.217-0.132,0.309
			c-0.061,0.09-0.139,0.163-0.233,0.217c-0.095,0.055-0.211,0.082-0.347,0.082c-0.137,0-0.252-0.027-0.348-0.082
			c-0.095-0.054-0.172-0.127-0.232-0.217c-0.061-0.092-0.104-0.193-0.131-0.309c-0.027-0.114-0.041-0.232-0.041-0.353
			c0-0.122,0.013-0.238,0.041-0.354c0.027-0.116,0.07-0.218,0.131-0.309c0.061-0.09,0.138-0.163,0.232-0.217
			c0.096-0.055,0.211-0.081,0.348-0.081c0.136,0,0.25,0.026,0.347,0.081C19.872,5.297,19.95,5.37,20.01,5.46
			c0.061,0.091,0.104,0.193,0.132,0.309C20.168,5.884,20.183,6,20.183,6.123C20.183,6.243,20.168,6.361,20.142,6.476z"/>
		<polygon points="22.325,4.507 21.483,4.507 21.483,7.739 23.833,7.739 23.833,7.015 22.325,7.015 		"/>
	</g>
</g>
<g>
</g>
<g>
</g>
<g>
</g>
<g>
</g>
<g>
</g>
<g>
</g>
<g>
</g>
<g>
</g>
<g>
</g>
<g>
</g>
<g>
</g>
<g>
</g>
<g>
</g>
<g>
</g>
<g>
</g>
</svg>
